<svg
   xmlns:dc="http://purl.org/dc/elements/1.1/"
   xmlns:cc="http://creativecommons.org/ns#"
   xmlns:rdf="http://www.w3.org/1999/02/22-rdf-syntax-ns#"
   xmlns:svg="http://www.w3.org/2000/svg"
   xmlns="http://www.w3.org/2000/svg"
   id="svg75"
   version="1.1"
   viewBox="0 0 380 280">
  <metadata
     id="metadata81">
    <rdf:RDF>
      <cc:Work
         rdf:about="">
        <dc:format>image/svg+xml</dc:format>
        <dc:type
           rdf:resource="http://purl.org/dc/dcmitype/StillImage" />
      </cc:Work>
    </rdf:RDF>
  </metadata>
  <defs
     id="defs79" />
  <svg
     height="100%"
     width="100%"
     id="svg2"
     version="1.1"
     viewBox="0 0 380 280" />
  <g
     transform="translate(128.5625,128.54687)"
     id="container">
    <path
       id="line4"
       d="M -3,-19.125 H 38.625"
       style="stroke:#86f227;stroke-width:1" />
    <path
       id="line6"
       d="m -3,-19.625 v 39.25"
       style="stroke:#86f227;stroke-width:1" />
    <path
       id="line8"
       d="M -3,19.125 H 38.625"
       style="stroke:#86f227;stroke-width:1" />
    <path
       id="line10"
       d="m 38.625,19.625 v -39.25"
       style="stroke:#86f227;stroke-width:1" />
    <path
       id="line12"
       d="m 17.8125,-19.625 v 39.25"
       style="stroke:#86f227;stroke-width:0.5;stroke-dasharray:2" />
    <path
       id="line14"
       d="M -3,0 H 38.625"
       style="stroke:#86f227;stroke-width:0.5;stroke-dasharray:2" />
    <g
       id="text16"
       style="font-size:38px;font-family:'Ideafonts XuanZhenSong';fill:#aff76f;fill-opacity:1"
       aria-label="车">
      <path
         id="path89"
         style="font-size:38px;font-family:'Ideafonts XuanZhenSong';fill:#aff76f;fill-opacity:1"
         d="m 10.1745,-10.6875 q 0.152,-0.304 0.494,-0.988 0.342,-0.722 0.722,-1.52 0.418,-0.874 0.684,-1.52 0.19,-0.38 0.304,-0.608 0.114,-0.266 0.19,-0.418 0.076,-0.114 0.114,-0.19 0.038,-0.114 0.076,-0.266 0.038,-0.228 0.532,-0.228 0.076,0 0.722,0.19 0.532,0.19 1.254,0.456 0.722,0.266 1.482,0.57 1.634,0.722 2.508,1.368 0.38,0.266 0.38,0.494 0,0.304 -0.228,0.608 -0.19,0.304 -0.494,0.608 -0.304,0.304 -0.608,0.646 -0.266,0.304 -0.342,0.532 h 1.672 q 1.824,0 3.61,0 1.786,-0.038 3.61,-0.228 0.456,-0.038 0.874,-0.266 0.418,-0.228 0.836,-0.532 0.38,-0.304 0.722,-0.494 0.38,-0.19 0.836,-0.19 0.076,0 0.152,0.038 0.114,0.038 0.114,0.228 0.076,0.076 0.152,0.152 0.076,0.076 0.228,0.152 0.114,0.152 0.228,0.266 0.114,0.076 0.266,0.228 0.304,0.228 0.494,0.456 0.228,0.228 0.342,0.342 0.228,0.19 0.722,0.722 0.532,0.532 0.532,1.026 0,0.076 -0.038,0.228 0,0.152 -0.076,0.152 h -10.906 l -1.634,0.076 q -0.532,0.038 -1.026,0.076 -0.494,0 -0.608,0 -0.19,0 -0.38,0 -0.152,0 -0.418,-0.038 -0.494,-0.038 -1.026,0 -0.494,0.038 -0.912,0.152 -0.456,0.038 -0.646,0.38 l -4.408,6.46 -0.114,0.266 h 2.394 q 0.19,0 0.494,0 0.342,-0.038 0.646,-0.076 l 0.722,-0.076 0.114,-0.114 v -5.89 h 1.444 l 3.8,0.912 q 0.228,-0.076 0.646,0.114 0.456,0.152 0.456,0.456 0,0.494 -0.038,1.026 0,0.494 0,1.026 -0.038,0.532 -0.076,1.102 0,0.57 0,1.102 h 1.596 q 0.646,0 1.14,-0.114 0.494,-0.152 0.95,-0.494 0.456,-0.342 1.102,-0.988 0,-0.038 0.076,-0.114 0.076,-0.152 0.228,-0.152 0.418,0 1.216,0.494 0.836,0.494 1.672,1.178 0.418,0.304 0.76,0.646 0.38,0.342 0.684,0.684 0.304,0.342 0.494,0.646 0.228,0.304 0.228,0.418 -0.076,0 -0.494,0.038 -0.38,0 -0.456,0.038 -1.178,0 -2.356,0 -1.14,0 -2.318,0.038 -1.178,0.038 -2.356,0.076 -1.14,0 -2.318,0 -0.114,0.304 -0.152,0.722 0,0.418 0,0.836 0,0.19 0,0.38 0,0.19 0.038,0.38 v 1.976 l 0.114,0.114 h 1.14 l 1.862,-0.076 q 0.608,0 1.14,0 0.532,-0.038 0.646,-0.038 0.57,0 1.064,-0.038 0.532,-0.038 0.95,-0.228 0.19,-0.076 0.456,-0.418 0.19,-0.304 0.38,-0.57 0.228,-0.304 0.456,-0.532 0.228,-0.228 0.532,-0.228 0.76,0 1.368,0.532 0.608,0.532 1.026,0.95 0.038,0.038 0.076,0.152 0.076,0.076 0.228,0.19 0.228,0.304 0.532,0.684 0.304,0.38 0.57,0.798 l 0.456,0.57 q 0.114,0.114 0.114,0.228 0.038,0.076 0.038,0.19 0,0.266 -0.152,0.266 h -11.894 q -0.038,0 -0.19,0 -0.114,0 -0.304,0.038 -0.19,0.038 -0.304,0.076 -0.114,0 -0.19,0 l -0.114,0.114 v 6.802 q 0,0.19 -0.228,0.342 -0.228,0.19 -0.342,0.19 -0.19,0.076 -0.608,0.152 -0.418,0.114 -0.95,0.228 -0.532,0.114 -0.988,0.19 -0.418,0.114 -0.57,0.114 h -2.28 q -0.076,0 -0.418,-0.266 v -1.9 q 0,-0.722 0,-1.444 0.038,-0.76 0.076,-1.52 0.038,-0.76 0.038,-1.482 0.038,-0.76 0.038,-1.52 -0.798,0 -2.546,0.038 -1.748,0.038 -3.686,0.114 -1.938,0.038 -3.686,0.076 -1.748,0.038 -2.508,0.038 h -0.456 l -1.71,-2.394 v -0.152 q 0.608,0 1.748,0 1.14,-0.038 2.546,-0.038 1.406,-0.038 2.926,-0.038 1.558,-0.038 2.964,-0.038 1.406,0 2.508,0 1.14,0 1.748,0 l 0.152,-0.152 v -3.99 q -1.444,0 -2.584,0.038 -1.102,0 -2.166,0.114 -1.026,0.114 -2.09,0.38 -1.064,0.228 -2.356,0.646 h -0.152 q -0.152,0 -0.494,-0.456 -0.342,-0.456 -0.722,-1.064 -0.342,-0.608 -0.608,-1.178 -0.304,-0.608 -0.304,-0.76 0,-0.456 0.228,-0.532 l 0.494,-0.152 q 0.532,-0.19 0.95,-0.608 0.456,-0.456 0.76,-0.988 l 1.52,-2.774 1.026,-1.786 v -0.228 q -0.532,0 -1.064,0.038 -0.532,0 -1.064,0.038 -0.532,0.038 -1.064,0.076 -0.532,0 -1.064,0 h -0.988 l -0.114,-0.266 -0.266,-0.418 q -0.19,-0.304 -0.418,-0.608 -0.19,-0.342 -0.38,-0.646 -0.114,-0.114 -0.19,-0.19 -0.038,-0.114 -0.076,-0.19 0.988,-0.038 1.976,-0.038 1.026,-0.038 2.09,-0.038 1.064,0.038 2.052,0 1.026,-0.076 1.976,-0.19 z" />
    </g>
    <path
       id="line18"
       d="M 40.625,-19.125 H 82.25"
       style="stroke:#86f227;stroke-width:1" />
    <path
       id="line20"
       d="m 40.625,-19.625 v 39.25"
       style="stroke:#86f227;stroke-width:1" />
    <path
       id="line22"
       d="M 40.625,19.125 H 82.25"
       style="stroke:#86f227;stroke-width:1" />
    <path
       id="line24"
       d="m 82.25,19.625 v -39.25"
       style="stroke:#86f227;stroke-width:1" />
    <path
       id="line26"
       d="m 61.4375,-19.625 v 39.25"
       style="stroke:#86f227;stroke-width:0.5;stroke-dasharray:2" />
    <path
       id="line28"
       d="M 40.625,0 H 82.25"
       style="stroke:#86f227;stroke-width:0.5;stroke-dasharray:2" />
    <g
       id="text30"
       style="font-size:38px;font-family:'Ideafonts XuanZhenSong';fill:#aff76f;fill-opacity:1"
       aria-label="唧">
      <path
         id="path98"
         style="font-size:38px;font-family:'Ideafonts XuanZhenSong';fill:#aff76f;fill-opacity:1"
         d="m 55.5095,-15.1715 q 0.038,-0.076 0.114,-0.114 0.114,-0.076 0.19,-0.152 l 0.152,-0.114 h 0.152 l 0.228,0.152 0.456,0.228 1.406,0.836 q 0.304,0.228 0.57,0.342 0.266,0.076 0.608,0.266 0.19,0.076 0.38,0.114 0.228,0.038 0.418,0.038 0.988,0 1.406,-0.266 0.418,-0.304 0.646,-0.684 0.114,-0.304 0.304,-0.646 0.19,-0.342 0.608,-0.38 l 0.266,0.076 q 0.038,0.038 0.076,0.038 0.038,0 0.114,0.038 0.152,0.076 0.532,0.38 0.38,0.266 0.798,0.646 0.418,0.342 0.76,0.684 0.38,0.304 0.57,0.38 l 0.418,0.342 q 0.266,0.342 0.266,0.494 0,0.494 -0.38,0.912 -0.38,0.38 -0.57,0.57 v 10.944 q 0,0.418 -0.456,0.722 -0.418,0.304 -1.064,0.532 -0.646,0.228 -1.254,0.38 -0.608,0.114 -0.95,0.114 -0.418,0 -0.57,-0.19 -0.114,-0.19 -0.114,-0.494 0,-0.19 -0.038,-0.38 0,-0.19 -0.038,-0.38 0,-0.266 -0.038,-0.456 h -1.292 l -0.076,3.116 q -0.038,1.026 -0.076,1.938 0,0.912 0,1.254 v 0.646 q 0.228,0 0.57,0 0.38,-0.038 0.76,-0.114 0.304,-0.076 0.57,-0.19 0.266,-0.114 0.266,-0.342 0,-0.19 -0.038,-0.304 0,-0.114 -0.038,-0.266 -0.114,-0.228 -0.19,-0.456 -0.076,-0.228 -0.266,-0.532 l -0.342,-0.684 -0.38,-0.646 q -0.19,-0.304 -0.19,-0.456 v -0.152 q 0,-0.38 0.418,-0.532 0.266,0 0.95,0.418 0.684,0.418 1.482,0.988 0.38,0.266 0.722,0.532 0.342,0.266 0.722,0.57 0.646,0.57 0.95,0.874 0.304,0.266 0.532,0.684 0.152,0.418 0.57,0.76 0,-0.456 0,-1.596 0.038,-1.178 0.076,-2.432 l 0.076,-3.99 v -11.628 q -0.114,-0.722 -0.152,-1.026 0,-0.342 0,-0.874 v -0.532 l 0.152,-0.114 h 0.152 q 0.076,0.076 0.19,0.152 0.114,0.038 0.304,0.114 l 0.76,0.456 q 0.19,0.152 0.38,0.266 0.19,0.076 0.38,0.19 l 0.836,0.456 q 0.152,0.038 0.456,0.19 0.114,0.076 0.228,0.114 0.114,0.038 0.19,0.076 0.152,0.114 0.228,0.114 h 0.57 q 0.076,0 0.152,0 0.114,0 0.304,0.038 0.342,0.038 0.456,-0.114 0.114,-0.152 0.228,-0.418 0.152,-0.266 0.342,-0.532 0.19,-0.304 0.418,-0.494 0.228,-0.228 0.494,-0.228 0.19,0 0.266,0.038 0.076,0 0.304,0.114 l 1.368,0.912 q 0.418,0.304 0.798,0.608 0.418,0.266 0.494,0.342 0.228,0.266 0.646,0.532 l 0.38,0.266 v 1.102 q 0,0.038 -0.19,0.114 -0.19,0.114 -0.418,0.266 -0.228,0.114 -0.456,0.304 -0.152,0.114 -0.228,0.38 v 13.148 q -0.038,0.304 -0.038,0.646 0,0.304 0,0.646 -0.038,0.304 -0.038,0.646 0,0.304 0,0.608 -0.038,0.304 -0.038,0.494 0,0.152 0,0.228 -0.076,0.836 -0.494,1.406 -0.418,0.532 -1.064,0.95 -0.646,0.418 -1.406,0.722 -0.76,0.304 -1.444,0.532 -0.342,-0.19 -0.418,-0.57 -0.038,-0.418 -0.038,-0.912 -0.038,-0.532 -0.152,-0.95 -0.114,-0.456 -0.532,-0.76 v 7.144 q 0,0.532 -0.456,0.874 -0.418,0.342 -1.064,0.57 -0.646,0.228 -1.33,0.342 -0.646,0.114 -1.102,0.114 -0.19,0 -0.38,-0.114 -0.19,-0.114 -0.19,-0.418 v -6.27 h -0.152 q -0.152,0.95 -1.026,1.558 -0.988,0.608 -1.938,0.608 h -0.684 q -0.19,-0.114 -0.304,-0.38 -0.114,-0.266 -0.114,-0.456 -0.076,-0.114 -0.152,-0.38 -0.038,-0.304 -0.114,-0.684 l -0.114,-0.646 q -0.076,-0.38 -0.076,-0.418 l -4.902,5.016 q -0.114,0.228 -0.266,0.266 -0.114,0.038 -0.304,0.038 -0.114,0 -0.532,-0.608 -0.418,-0.57 -0.874,-1.292 -0.418,-0.722 -0.798,-1.444 -0.342,-0.684 -0.342,-0.912 v -0.266 l 1.406,-1.33 v -21.128 l -0.076,-0.532 q -0.038,-0.228 -0.076,-0.38 0,-0.152 0,-0.266 z m -9.918,1.368 q 0.494,0 0.95,0.304 0.494,0.304 0.988,0.608 0.494,0.342 0.988,0.646 0.494,0.304 1.064,0.304 0.836,0 1.14,-0.38 0.304,-0.418 0.722,-1.254 l 0.228,-0.114 1.178,0.532 q 0.076,0.076 0.19,0.152 0.152,0.076 0.342,0.228 0.19,0.114 0.38,0.266 0.228,0.152 0.418,0.266 0.19,0.19 0.38,0.342 0.228,0.114 0.418,0.266 0.38,0.304 0.532,0.418 0.152,0.076 0.152,0.304 0,0.304 -0.152,0.494 -0.114,0.19 -0.266,0.38 -0.076,0.114 -0.19,0.228 -0.114,0.076 -0.19,0.152 -0.19,0.19 -0.19,0.38 v 6.004 q -0.038,0.608 -0.038,1.216 0,0.57 0,1.178 -0.038,0.646 -0.038,1.254 0,0.57 0,1.14 -0.038,0.57 -0.038,1.102 0,0.494 0,0.912 v 1.33 q -0.114,0.418 -0.494,0.684 -0.342,0.266 -0.836,0.456 -0.456,0.19 -0.95,0.266 -0.494,0.076 -0.836,0.076 h -0.57 l -0.152,-0.114 q -0.19,-0.418 -0.266,-1.102 -0.038,-0.19 -0.038,-0.57 v -0.342 l -0.152,-0.114 h -0.836 v 1.33 l -0.076,0.912 q 0,0.304 -0.038,0.608 0,0.266 0,0.342 -0.532,0.722 -1.558,1.026 -1.026,0.304 -2.014,0.304 -0.266,0 -0.38,-0.114 -0.114,-0.114 -0.152,-0.266 -0.038,-0.19 -0.038,-0.38 0.038,-0.228 0.038,-0.418 0,-2.622 0,-5.244 0.038,-2.622 0.076,-5.244 0.038,-2.584 0.038,-5.206 0.038,-2.622 0.038,-5.32 z m 26.6,18.658 q 0.114,0 0.304,0 0.19,-0.038 0.266,-0.228 l 0.076,-0.722 q 0.038,-0.304 0.038,-0.494 0.038,-0.228 0.038,-0.456 v -3.8 q 0,-0.608 0,-1.216 0,-0.608 0.038,-1.292 0.038,-0.646 0.038,-1.254 0,-0.646 0,-1.216 0,-0.608 0,-1.102 0,-0.532 0.038,-0.95 v -2.888 h -1.406 v 15.542 q 0,0.114 0.304,0.114 0.19,0 0.266,-0.038 z m -22.762,-3.306 h 0.988 l 0.076,-1.14 q 0.038,-0.38 0.038,-0.646 0.038,-0.304 0.038,-0.494 v -8.93 h -0.266 q -0.19,0 -0.342,0.038 -0.152,0 -0.342,0.038 -0.076,0.038 -0.152,0.038 h -0.038 z m 10.602,-9.614 1.558,-0.114 q 0.038,-0.076 0.076,-0.228 0.076,-0.19 0.076,-0.342 v -2.508 h -1.102 q -0.152,0 -0.342,0.038 -0.19,0.038 -0.266,0.076 z m 0.152,5.472 h 0.57 q 0.342,0 0.722,-0.076 h 0.076 l 0.038,-0.038 v -3.078 h -1.406 z" />
    </g>
    <path
       id="line32"
       d="m 84.25,-19.125 h 41.625"
       style="stroke:#86f227;stroke-width:1" />
    <path
       id="line34"
       d="m 84.25,-19.625 v 39.25"
       style="stroke:#86f227;stroke-width:1" />
    <path
       id="line36"
       d="m 84.25,19.125 h 41.625"
       style="stroke:#86f227;stroke-width:1" />
    <path
       id="line38"
       d="m 125.875,19.625 v -39.25"
       style="stroke:#86f227;stroke-width:1" />
    <path
       id="line40"
       d="m 105.0625,-19.625 v 39.25"
       style="stroke:#86f227;stroke-width:0.5;stroke-dasharray:2" />
    <path
       id="line42"
       d="m 84.25,0 h 41.625"
       style="stroke:#86f227;stroke-width:0.5;stroke-dasharray:2" />
    <g
       id="text44"
       style="font-size:38px;font-family:'Ideafonts XuanZhenSong';fill:#aff76f;fill-opacity:1"
       aria-label="唧">
      <path
         id="path107"
         style="font-size:38px;font-family:'Ideafonts XuanZhenSong';fill:#aff76f;fill-opacity:1"
         d="m 99.1345,-15.1715 q 0.038,-0.076 0.114,-0.114 0.114,-0.076 0.19,-0.152 l 0.152,-0.114 h 0.152 l 0.228,0.152 0.456,0.228 1.406,0.836 q 0.304,0.228 0.57,0.342 0.266,0.076 0.608,0.266 0.19,0.076 0.38,0.114 0.228,0.038 0.418,0.038 0.988,0 1.406,-0.266 0.418,-0.304 0.646,-0.684 0.114,-0.304 0.304,-0.646 0.19,-0.342 0.608,-0.38 l 0.266,0.076 q 0.038,0.038 0.076,0.038 0.038,0 0.114,0.038 0.152,0.076 0.532,0.38 0.38,0.266 0.798,0.646 0.418,0.342 0.76,0.684 0.38,0.304 0.57,0.38 l 0.418,0.342 q 0.266,0.342 0.266,0.494 0,0.494 -0.38,0.912 -0.38,0.38 -0.57,0.57 v 10.944 q 0,0.418 -0.456,0.722 -0.418,0.304 -1.064,0.532 -0.646,0.228 -1.254,0.38 -0.608,0.114 -0.95,0.114 -0.418,0 -0.57,-0.19 -0.114,-0.19 -0.114,-0.494 0,-0.19 -0.038,-0.38 0,-0.19 -0.038,-0.38 0,-0.266 -0.038,-0.456 h -1.292 l -0.076,3.116 q -0.038,1.026 -0.076,1.938 0,0.912 0,1.254 v 0.646 q 0.228,0 0.57,0 0.38,-0.038 0.76,-0.114 0.304,-0.076 0.57,-0.19 0.266,-0.114 0.266,-0.342 0,-0.19 -0.038,-0.304 0,-0.114 -0.038,-0.266 -0.114,-0.228 -0.19,-0.456 -0.076,-0.228 -0.266,-0.532 l -0.342,-0.684 -0.38,-0.646 q -0.19,-0.304 -0.19,-0.456 v -0.152 q 0,-0.38 0.418,-0.532 0.266,0 0.95,0.418 0.684,0.418 1.482,0.988 0.38,0.266 0.722,0.532 0.342,0.266 0.722,0.57 0.646,0.57 0.95,0.874 0.304,0.266 0.532,0.684 0.152,0.418 0.57,0.76 0,-0.456 0,-1.596 0.038,-1.178 0.076,-2.432 l 0.076,-3.99 v -11.628 q -0.114,-0.722 -0.152,-1.026 0,-0.342 0,-0.874 v -0.532 l 0.152,-0.114 h 0.152 q 0.076,0.076 0.19,0.152 0.114,0.038 0.304,0.114 l 0.76,0.456 q 0.19,0.152 0.38,0.266 0.19,0.076 0.38,0.19 l 0.836,0.456 q 0.152,0.038 0.456,0.19 0.114,0.076 0.228,0.114 0.114,0.038 0.19,0.076 0.152,0.114 0.228,0.114 h 0.57 q 0.076,0 0.152,0 0.114,0 0.304,0.038 0.342,0.038 0.456,-0.114 0.114,-0.152 0.228,-0.418 0.152,-0.266 0.342,-0.532 0.19,-0.304 0.418,-0.494 0.228,-0.228 0.494,-0.228 0.19,0 0.266,0.038 0.076,0 0.304,0.114 l 1.368,0.912 q 0.418,0.304 0.798,0.608 0.418,0.266 0.494,0.342 0.228,0.266 0.646,0.532 l 0.38,0.266 v 1.102 q 0,0.038 -0.19,0.114 -0.19,0.114 -0.418,0.266 -0.228,0.114 -0.456,0.304 -0.152,0.114 -0.228,0.38 v 13.148 q -0.038,0.304 -0.038,0.646 0,0.304 0,0.646 -0.038,0.304 -0.038,0.646 0,0.304 0,0.608 -0.038,0.304 -0.038,0.494 0,0.152 0,0.228 -0.076,0.836 -0.494,1.406 -0.418,0.532 -1.064,0.95 -0.646,0.418 -1.406,0.722 -0.76,0.304 -1.444,0.532 -0.342,-0.19 -0.418,-0.57 -0.038,-0.418 -0.038,-0.912 -0.038,-0.532 -0.152,-0.95 -0.114,-0.456 -0.532,-0.76 v 7.144 q 0,0.532 -0.456,0.874 -0.418,0.342 -1.064,0.57 -0.646,0.228 -1.33,0.342 -0.646,0.114 -1.102,0.114 -0.19,0 -0.38,-0.114 -0.19,-0.114 -0.19,-0.418 v -6.27 h -0.152 q -0.152,0.95 -1.026,1.558 -0.988,0.608 -1.938,0.608 h -0.684 q -0.19,-0.114 -0.304,-0.38 -0.114,-0.266 -0.114,-0.456 -0.076,-0.114 -0.152,-0.38 -0.038,-0.304 -0.114,-0.684 l -0.114,-0.646 q -0.076,-0.38 -0.076,-0.418 l -4.902,5.016 q -0.114,0.228 -0.266,0.266 -0.114,0.038 -0.304,0.038 -0.114,0 -0.532,-0.608 -0.418,-0.57 -0.874,-1.292 -0.418,-0.722 -0.798,-1.444 -0.342,-0.684 -0.342,-0.912 v -0.266 l 1.406,-1.33 v -21.128 l -0.076,-0.532 q -0.038,-0.228 -0.076,-0.38 0,-0.152 0,-0.266 z m -9.918,1.368 q 0.494,0 0.95,0.304 0.494,0.304 0.988,0.608 0.494,0.342 0.988,0.646 0.494,0.304 1.064,0.304 0.836,0 1.14,-0.38 0.304,-0.418 0.722,-1.254 l 0.228,-0.114 1.178,0.532 q 0.076,0.076 0.19,0.152 0.152,0.076 0.342,0.228 0.19,0.114 0.38,0.266 0.228,0.152 0.418,0.266 0.19,0.19 0.38,0.342 0.228,0.114 0.418,0.266 0.38,0.304 0.532,0.418 0.152,0.076 0.152,0.304 0,0.304 -0.152,0.494 -0.114,0.19 -0.266,0.38 -0.076,0.114 -0.19,0.228 -0.114,0.076 -0.19,0.152 -0.19,0.19 -0.19,0.38 v 6.004 q -0.038,0.608 -0.038,1.216 0,0.57 0,1.178 -0.038,0.646 -0.038,1.254 0,0.57 0,1.14 -0.038,0.57 -0.038,1.102 0,0.494 0,0.912 v 1.33 q -0.114,0.418 -0.494,0.684 -0.342,0.266 -0.836,0.456 -0.456,0.19 -0.95,0.266 -0.494,0.076 -0.836,0.076 h -0.57 l -0.152,-0.114 q -0.19,-0.418 -0.266,-1.102 -0.038,-0.19 -0.038,-0.57 v -0.342 l -0.152,-0.114 h -0.836 v 1.33 l -0.076,0.912 q 0,0.304 -0.038,0.608 0,0.266 0,0.342 -0.532,0.722 -1.558,1.026 -1.026,0.304 -2.014,0.304 -0.266,0 -0.38,-0.114 -0.114,-0.114 -0.152,-0.266 -0.038,-0.19 -0.038,-0.38 0.038,-0.228 0.038,-0.418 0,-2.622 0,-5.244 0.038,-2.622 0.076,-5.244 0.038,-2.584 0.038,-5.206 0.038,-2.622 0.038,-5.32 z m 26.6,18.658 q 0.114,0 0.304,0 0.19,-0.038 0.266,-0.228 l 0.076,-0.722 q 0.038,-0.304 0.038,-0.494 0.038,-0.228 0.038,-0.456 v -3.8 q 0,-0.608 0,-1.216 0,-0.608 0.038,-1.292 0.038,-0.646 0.038,-1.254 0,-0.646 0,-1.216 0,-0.608 0,-1.102 0,-0.532 0.038,-0.95 v -2.888 h -1.406 v 15.542 q 0,0.114 0.304,0.114 0.19,0 0.266,-0.038 z m -22.762,-3.306 h 0.988 l 0.076,-1.14 q 0.038,-0.38 0.038,-0.646 0.038,-0.304 0.038,-0.494 v -8.93 h -0.266 q -0.19,0 -0.342,0.038 -0.152,0 -0.342,0.038 -0.076,0.038 -0.152,0.038 h -0.038 z m 10.602,-9.614 1.558,-0.114 q 0.038,-0.076 0.076,-0.228 0.076,-0.19 0.076,-0.342 v -2.508 h -1.102 q -0.152,0 -0.342,0.038 -0.19,0.038 -0.266,0.076 z m 0.152,5.472 h 0.57 q 0.342,0 0.722,-0.076 h 0.076 l 0.038,-0.038 v -3.078 h -1.406 z" />
    </g>
  </g>
  <g
     id="text47"
     style="font-size:14px;font-family:'Arial Unicode MS';fill:#aafc62;fill-opacity:1"
     aria-label="汽">
    <path
       id="path110"
       style="font-size:14px;font-family:'Arial Unicode MS';fill:#aafc62;fill-opacity:1"
       d="m 143.41309,153.09766 h -6.15918 q -0.65625,1.7705 -2.01661,2.92578 l -0.90918,-0.60157 q 1.90723,-1.44921 2.52247,-4.79199 l 0.92285,0.49219 q -0.0205,0.36914 -0.18457,0.9502 h 5.82422 z m -8.18946,-0.23926 -0.69726,0.76562 q -1.05274,-1.41504 -2.25586,-1.90039 l 0.66992,-0.78613 q 1.32617,0.64258 2.2832,1.9209 z m -1.01172,2.91211 -0.72461,0.78613 q -0.9707,-1.42187 -2.16699,-1.93457 l 0.64258,-0.77246 q 1.40137,0.64258 2.24902,1.9209 z m 8.5586,-0.64258 h -5.87891 v -1.02539 h 5.87891 z m 0.97754,5.05176 q -0.77246,3.20605 -1.94141,3.20605 -0.57422,0 -1.05957,-0.71094 -0.48535,-0.7041 -0.48535,-2.09179 0,-1.29883 0.50586,-3.35645 h -5.5166 v -1.02539 h 6.90429 q -0.79297,2.65235 -0.79297,4.46387 0,1.46289 0.50586,1.46289 0.18457,0 0.49219,-0.93652 0.31445,-0.94336 0.41016,-1.54493 z m -8.91407,-2.21485 q -1.01171,3.32227 -2.8164,5.29102 l -0.85449,-0.65625 q 1.8457,-1.96875 2.75488,-5.19531 z" />
  </g>
  <g
     id="text49"
     style="font-size:14px;font-family:'Arial Unicode MS';fill:#aafc62;fill-opacity:1"
     aria-label="车">
    <path
       id="path113"
       style="font-size:14px;font-family:'Arial Unicode MS';fill:#aafc62;fill-opacity:1"
       d="m 158.79102,160.41895 h -5.51661 v 2.96679 h -1.0664 v -2.96679 h -6.21387 v -1.0254 h 6.21387 v -1.62011 H 148.25 v -0.92285 l 1.70898,-3.29493 h -3.21972 v -1.01855 h 3.71875 l 0.85449,-1.66797 0.95703,0.46484 -0.62207,1.20313 h 6.23438 v 1.01855 h -6.7334 l -1.6543,3.19239 h 2.71387 v -2.19434 h 1.0664 v 2.19434 h 3.6709 v 1.02539 h -3.6709 v 1.62011 h 5.51661 z" />
  </g>
  <g
     id="text51"
     style="font-size:14px;font-family:'Arial Unicode MS';fill:#aafc62;fill-opacity:1"
     aria-label="界">
    <path
       id="path116"
       style="font-size:14px;font-family:'Arial Unicode MS';fill:#aafc62;fill-opacity:1"
       d="m 173.98437,159.44824 -0.69726,1.01172 q -2.39258,-0.69726 -3.41797,-1.68164 v 4.70313 h -1.06641 v -4.83985 h 0.90918 q -0.76562,-0.7041 -1.07324,-1.46973 h -1.98926 q -1.07324,2.31055 -4.71679,3.14454 l -0.64258,-0.96387 q 2.80273,-0.52637 4.21094,-2.18067 h -2.11231 v -5.59179 h 8.44238 v 5.59179 h -2.03027 q 1.23047,1.79102 4.18359,2.27637 z m -3.21972,-5.63965 v -1.21679 h -2.61817 v 1.21679 z m -3.68457,0 v -1.21679 h -2.63184 v 1.21679 z m 3.68457,2.35157 v -1.33985 h -2.61817 v 1.33985 z m -3.68457,0 v -1.33985 h -2.63184 v 1.33985 z m -0.23242,2.52246 q 0.0342,2.1875 -0.94336,3.34277 -0.97754,1.14844 -3.08985,1.4834 l -0.58789,-0.99121 q 1.90723,-0.19141 2.73438,-1.07324 0.83398,-0.88868 0.80664,-2.76172 z" />
  </g>
  <g
     id="text53"
     style="font-size:14px;font-family:'Arial Unicode MS';fill:#aafc62;fill-opacity:1"
     aria-label="的">
    <path
       id="path119"
       style="font-size:14px;font-family:'Arial Unicode MS';fill:#aafc62;fill-opacity:1"
       d="m 188.00195,153.16602 q -0.0547,5.66015 -0.54687,7.8955 -0.48535,2.22852 -1.72266,2.22852 -0.56055,0 -2.18066,-0.46484 l -0.18457,-1.17579 q 1.5791,0.58789 2.20117,0.58789 0.60156,0 0.9707,-2.20117 0.37598,-2.20801 0.40332,-5.90625 h -2.9873 q -0.53321,1.47657 -1.62012,2.93946 l -0.73144,-0.47168 v 6.25488 h -1.10059 v -0.90918 h -2.32422 v 1.13476 h -1.10742 v -9.70019 h 1.28516 q 0.56738,-1.00488 0.85449,-2.46777 l 1.01172,0.41015 q -0.40332,1.49024 -0.75879,2.05762 h 2.13965 v 2.85059 q 1.55859,-2.20118 2.10546,-5.42774 l 1.11426,0.25293 q -0.18457,0.82715 -0.60156,2.11231 z m -7.49902,3.93066 v -2.7002 h -2.32422 v 2.7002 z m 0,3.82129 v -2.7959 h -2.32422 v 2.7959 z m 5.59863,-1.38086 -1.01172,0.44434 q -0.60839,-1.66114 -1.90039,-3.28809 l 0.86817,-0.57422 q 1.4082,1.62012 2.04394,3.41797 z" />
  </g>
  <g
     id="text55"
     style="font-size:14px;font-family:'Arial Unicode MS';fill:#aafc62;fill-opacity:1"
     aria-label="小">
    <path
       id="path122"
       style="font-size:14px;font-family:'Arial Unicode MS';fill:#aafc62;fill-opacity:1"
       d="m 198.38281,161.58105 q 0,0.82032 -0.45801,1.16895 -0.45117,0.34863 -1.38085,0.34863 l -0.8545,-0.0205 q -0.21191,0 -0.38281,0.0137 l -0.46484,-1.14844 q 0.86816,0.0684 1.46972,0.0684 0.6836,0 0.82032,-0.0957 0.14355,-0.0957 0.14355,-0.33497 v -10.5 h 1.10742 z m 5.37305,-2.78906 -1.00488,0.49219 q -0.84082,-2.68652 -3.17871,-4.81934 l 0.99804,-0.52636 q 2.42676,2.20117 3.18555,4.85351 z m -8.20313,-4.36816 q -0.90234,2.95312 -2.91211,4.91504 l -0.86816,-0.72461 q 2.00977,-1.98926 2.84375,-4.66211 z" />
  </g>
  <g
     id="text57"
     style="font-size:14px;font-family:'Arial Unicode MS';fill:#aafc62;fill-opacity:1"
     aria-label="家">
    <path
       id="path125"
       style="font-size:14px;font-family:'Arial Unicode MS';fill:#aafc62;fill-opacity:1"
       d="m 218.5459,155.08008 h -1.07324 v -1.55176 h -8.97559 l 0.0137,1.61328 h -1.08008 v -2.60449 h 5.0586 q -0.18457,-0.3418 -1.33301,-1.17578 0.34863,-0.25293 0.88184,-0.66309 1.05273,0.62891 1.77734,1.83887 h 4.73047 z m 0.67676,6.45996 -0.70411,0.82031 q -2.13281,-0.95019 -3.13769,-3.73242 l -0.66992,0.28027 q 0.23926,1.03223 0.23926,2.08496 0,1.33985 -0.36915,1.90039 -0.3623,0.56739 -1.36718,0.56739 -0.61524,0 -1.69532,-0.20508 l -0.43066,-1.24414 q 1.36719,0.45117 2.20117,0.45117 0.29395,0 0.45801,-0.25293 0.16406,-0.25293 0.16406,-1.42187 0,-0.30762 -0.0137,-0.66309 -1.98242,1.70898 -6.17285,2.48828 l -0.76563,-0.96387 q 4.43653,-0.61523 6.71973,-2.61816 -0.20508,-0.5332 -0.38281,-0.81348 -2.50195,1.75 -5.31836,2.03028 l -0.73828,-0.90918 q 3.55469,-0.48535 5.48242,-1.9209 -0.33496,-0.27344 -0.69727,-0.47168 -1.64062,0.81348 -3.79394,1.10742 l -0.73145,-0.92969 q 3.37696,-0.51953 5.09961,-1.5791 l -0.0273,-0.0137 h -3.5 l 0.0137,-1.00488 h 7.89551 v 0.99121 h -2.57715 q -0.35547,0.31445 -1.33984,0.89551 0.84765,0.57421 1.3125,1.56543 1.25097,-0.40332 2.59082,-2.01661 l 0.81347,0.71778 q -0.6084,0.7041 -1.55859,1.40136 0.3623,1.11426 1.18945,2.09864 0.83399,0.97754 1.81153,1.36035 z" />
  </g>
  <g
     id="text59"
     style="font-size:14px;font-family:'Arial Unicode MS';fill:#aafc62;fill-opacity:1"
     aria-label="雀">
    <path
       id="path128"
       style="font-size:14px;font-family:'Arial Unicode MS';fill:#aafc62;fill-opacity:1"
       d="m 228.63281,154.04785 h -1.0664 v -3.24707 h 1.0664 z m -2.12597,-1.83203 q -1.52442,1.94141 -3.64356,2.57031 l -0.7793,-0.86816 q 1.96192,-0.46485 3.67774,-2.40625 z m 7.58789,2.05762 -0.86817,0.72461 q -1.25097,-1.83203 -3.52734,-2.63184 l 0.68359,-0.7998 q 2.31739,0.82031 3.71192,2.70703 z m -0.0684,8.35351 h -8.98926 v 0.84082 h -1.06641 v -6.70605 q -1.02539,0.1709 -1.79101,0.18457 l -0.64258,-1.08008 q 6.20019,-0.30078 8.90039,-2.75488 l 0.90918,0.64258 q -1.01172,0.95019 -2.37891,1.64062 0.63575,0.7041 0.74512,0.99121 h 3.91699 v 1.01856 H 229.125 v 0.71777 h 3.52734 v 0.9502 H 229.125 v 0.78613 h 3.52734 v 0.95019 H 229.125 v 0.79981 h 4.90137 z m -5.40723,-6.22754 q -0.12988,-0.15722 -0.60156,-0.64257 -1.02539,0.45117 -2.36524,0.64257 l 0.0273,0.0274 z m -0.56055,1.72266 v -0.71777 h -3.02148 v 0.71777 z m 0,1.73633 v -0.78613 h -3.02148 v 0.78613 z m 0,1.75 v -0.79981 h -3.02148 v 0.79981 z" />
  </g>
  <g
     id="text61"
     style="font-size:14px;font-family:'Arial Unicode MS';fill:#aafc62;fill-opacity:1"
     aria-label="儿">
    <path
       id="path131"
       style="font-size:14px;font-family:'Arial Unicode MS';fill:#aafc62;fill-opacity:1"
       d="m 249.52734,160.58301 q -0.28027,1.29883 -0.4375,1.66113 -0.15722,0.35547 -0.47168,0.58789 -0.31445,0.23242 -0.57421,0.23242 h -2.29688 q -1.23047,-0.21191 -1.23047,-1.70898 v -10.2334 h 1.10059 v 10.1377 q 0.041,0.34179 0.2666,0.51953 0.22558,0.17773 0.32129,0.17773 h 1.55859 q 0.57422,0 0.69727,-1.90039 z m -7.49218,-3.17871 q 0,3.82129 -4.39551,6.26172 l -0.93653,-0.92286 q 4.22461,-1.56543 4.22461,-5.99511 v -5.62598 h 1.10743 z" />
  </g>
  <svg
     id="svg67"
     version="1.1"
     height="15"
     width="97.553604"
     y="92.296875"
     x="141.22319">
    <svg
       height="100%"
       width="100%"
       id="svg65"
       version="1.1"
       viewBox="0 0 100.09 15.39">
      <path
         style="fill:#86f227"
         id="path63"
         d="M 0.15,15.39 0,0 l 100,7.73 0.09,7.54 -3,0.04 -0.06,-4.8 -94,-7.27 0.12,12.12 z" />
    </svg>
  </svg>
  <svg
     id="svg73"
     version="1.1"
     height="15"
     width="97.612083"
     y="164.79688"
     x="141.19395">
    <svg
       height="100%"
       width="100%"
       id="svg71"
       version="1.1"
       viewBox="0 0 100.15 15.39">
      <path
         style="fill:#86f227"
         id="path69"
         d="M 0.15,15.39 0,0.03 3,0 l 0.12,12.14 94,-7.51 -0.05,-4.59 3,-0.04 0.09,7.4 z" />
    </svg>
  </svg>
</svg>
